<svg xmlns="http://www.w3.org/2000/svg" fill="none">
<!-- <rect width="43.656" height="35" x=".487" fill="#7FD1FF" fill-opacity=".66" rx="4"/> -->
<path fill="#2681ED" d="M20.651 9.75h4.574c2.426 0 4.752.773 6.468 2.148 1.715 1.375 2.679 3.24 2.679 5.185 0 1.945-.964 3.81-2.68 5.186-1.715 1.375-4.041 2.148-6.467 2.148v3.208c-5.717-1.833-13.72-4.583-13.72-10.542 0-1.945.963-3.81 2.679-5.185 1.715-1.375 4.042-2.148 6.467-2.148Zm2.287 12.833h2.287c.9 0 1.793-.142 2.625-.418a7.166 7.166 0 0 0 2.226-1.193 5.595 5.595 0 0 0 1.487-1.784 4.57 4.57 0 0 0 .522-2.105 4.57 4.57 0 0 0-.522-2.104 5.597 5.597 0 0 0-1.487-1.785 7.166 7.166 0 0 0-2.226-1.192 8.355 8.355 0 0 0-2.625-.419H20.65c-1.819 0-3.564.58-4.85 1.611-1.287 1.032-2.01 2.43-2.01 3.89 0 3.308 2.815 5.468 9.147 7.773v-2.274Z"/></svg>