<svg xmlns="http://www.w3.org/2000/svg" width="45" height="35" fill="none"><rect width="43.656" height="35" x=".487" fill="#F2E189" fill-opacity=".66" rx="4"/><g clip-path="url(#a)"><path fill="#FFB422" d="M30.716 14.785a7.036 7.036 0 0 0 3.656.373v10.175c0 .243-.12.477-.335.649a1.301 1.301 0 0 1-.809.268h-20.58a1.3 1.3 0 0 1-.809-.268.836.836 0 0 1-.335-.649V10.667c0-.243.121-.477.335-.649a1.3 1.3 0 0 1 .809-.268h14.978a3.705 3.705 0 0 0-.114.917c-.002 1.089.482 2.142 1.364 2.97l-5.868 4.072-7.334-4.99-1.48 1.396 8.828 6.009 7.695-5.339Zm2.512-1.368c-.45 0-.896-.072-1.312-.21a3.584 3.584 0 0 1-1.113-.596 2.798 2.798 0 0 1-.744-.892 2.285 2.285 0 0 1-.26-1.052c0-.361.088-.72.26-1.053.173-.333.425-.637.744-.892a3.585 3.585 0 0 1 1.113-.596c.416-.138.862-.21 1.312-.21.91 0 1.783.29 2.426.806.643.516 1.005 1.215 1.005 1.945 0 .729-.362 1.428-1.005 1.944-.643.516-1.516.806-2.426.806Z"/></g><defs><clipPath id="a"><path fill="#fff" d="M9.218 7h27.44v22H9.219z"/></clipPath></defs></svg>