<svg xmlns="http://www.w3.org/2000/svg" width="45" height="35" fill="none">
<!-- <rect width="43.656" height="35" x=".487" fill="#89F2A6" fill-opacity=".66" rx="4"/> -->
<path fill="#00C938" d="M33.228 22.052v3.241c0 .232-.11.456-.306.625-.198.17-.468.274-.757.29-.5.027-.908.042-1.223.042-10.104 0-18.294-6.566-18.294-14.667 0-.253.017-.58.053-.98a.859.859 0 0 1 .36-.607 1.31 1.31 0 0 1 .78-.246h4.043c.142 0 .28.042.384.118a.435.435 0 0 1 .186.294c.026.211.05.38.073.506a10.961 10.961 0 0 0 1.381 3.668c.109.183.038.402-.168.52l-2.467 1.413c1.508 2.819 4.31 5.065 7.825 6.274l1.76-1.974a.546.546 0 0 1 .297-.164.65.65 0 0 1 .359.027 18.913 18.913 0 0 0 5.202 1.163.63.63 0 0 1 .367.15.412.412 0 0 1 .147.307h-.002Z"/></svg>