<?xml version="1.0" encoding="utf-8"?>
<!-- Generated by IcoMoon.io -->
<svg version="1.1" xmlns="http://www.w3.org/2000/svg" xmlns:xlink="http://www.w3.org/1999/xlink" width="752" height="80" viewBox="0 0 752 80">
<svg id="icon-chat" width="41" height="32" viewBox="0 0 41 32">
<path fill="#7fd1ff" opacity="0.66" d="M4.102 0h32.6c2.020 0 3.657 1.637 3.657 3.657v24.686c0 2.020-1.637 3.657-3.657 3.657h-32.6c-2.020 0-3.657-1.637-3.657-3.657v-24.686c0-2.020 1.637-3.657 3.657-3.657z"></path>
<path fill="#2681ed" d="M18.881 8.914h4.182c2.218 0 4.345 0.707 5.914 1.964s2.449 2.962 2.449 4.741-0.881 3.483-2.45 4.742c-1.568 1.257-3.695 1.964-5.913 1.964v2.933c-5.227-1.676-12.544-4.19-12.544-9.638 0-1.778 0.88-3.483 2.449-4.741s3.696-1.964 5.913-1.964zM20.972 20.647h2.091c0.823 0 1.639-0.13 2.4-0.382 0.78-0.258 1.456-0.629 2.049-1.101l-0.013 0.010c0.558-0.442 1.014-0.984 1.346-1.604l0.013-0.027c0.298-0.558 0.475-1.221 0.477-1.924v-0.001c-0.003-0.704-0.179-1.366-0.488-1.946l0.011 0.023c-0.346-0.647-0.802-1.19-1.349-1.624l-0.011-0.008c-0.579-0.461-1.255-0.832-1.989-1.076l-0.046-0.013c-0.713-0.243-1.535-0.383-2.389-0.383-0.004 0-0.008 0-0.012 0h-4.182c-1.663 0-3.258 0.53-4.434 1.473s-1.838 2.222-1.838 3.557c0 3.024 2.574 4.999 8.363 7.107v-2.079z"></path>
</svg>
<svg id="icon-email" width="41" height="32" viewBox="0 0 41 32" >
<path fill="#f2e189" opacity="0.66" d="M4.102 0h32.6c2.020 0 3.657 1.637 3.657 3.657v24.686c0 2.020-1.637 3.657-3.657 3.657h-32.6c-2.020 0-3.657-1.637-3.657-3.657v-24.686c0-2.020 1.637-3.657 3.657-3.657z"></path>
<path fill="#ffb422" d="M28.083 13.518c0.683 0.27 1.474 0.426 2.302 0.426 0.368 0 0.728-0.031 1.079-0.090l-0.038 0.005v9.303c0 0.222-0.11 0.436-0.306 0.593-0.198 0.153-0.45 0.245-0.723 0.245-0.006 0-0.012-0-0.017-0h-18.815c-0.005 0-0.011 0-0.017 0-0.273 0-0.525-0.092-0.726-0.247l0.003 0.002c-0.182-0.137-0.3-0.351-0.306-0.592l-0-0.001v-13.409c0-0.222 0.111-0.436 0.306-0.593 0.198-0.153 0.45-0.245 0.723-0.245 0.006 0 0.012 0 0.018 0h13.693c-0.066 0.25-0.104 0.538-0.104 0.834 0 0.002 0 0.003 0 0.005v-0c-0.002 0.996 0.441 1.958 1.247 2.715l-5.365 3.723-6.705-4.562-1.353 1.276 8.071 5.494 7.035-4.881zM30.38 12.267c-0.411 0-0.819-0.066-1.2-0.192-0.39-0.129-0.728-0.314-1.024-0.55l0.007 0.005c-0.279-0.221-0.507-0.492-0.674-0.802l-0.007-0.014c-0.149-0.279-0.237-0.61-0.238-0.962v-0c0-0.33 0.080-0.658 0.238-0.963s0.389-0.582 0.68-0.816c0.29-0.231 0.628-0.416 0.994-0.538l0.023-0.007c0.38-0.126 0.788-0.192 1.2-0.192 0.832 0 1.63 0.265 2.218 0.737s0.919 1.111 0.919 1.778c0 0.666-0.331 1.306-0.919 1.777s-1.386 0.737-2.218 0.737z"></path>
</svg>
<svg id="icon-new-contact" viewBox="0 0 32 32">
<path d="M14.533 14.533v-5.866h2.934v5.866h5.866v2.934h-5.866v5.866h-2.934v-5.866h-5.866v-2.934h5.866zM16 30.667c-0 0-0.001 0-0.002 0-8.1 0-14.666-6.566-14.666-14.666 0-0.001 0-0.001 0-0.002v0c0-0 0-0.001 0-0.002 0-8.1 6.566-14.666 14.666-14.666 0.001 0 0.001 0 0.002 0h-0c0 0 0.001 0 0.002 0 8.1 0 14.666 6.566 14.666 14.666 0 0.001 0 0.001 0 0.002v-0c0 0 0 0.001 0 0.002 0 8.1-6.566 14.666-14.666 14.666-0.001 0-0.001 0-0.002 0h0zM16 27.733c6.48 0 11.733-5.253 11.733-11.733s-5.253-11.733-11.733-11.733v0c-6.48 0-11.733 5.253-11.733 11.733s5.253 11.733 11.733 11.733v0z"></path>
</svg>
<svg id="icon-phone" width="41" height="32" viewBox="0 0 41 32">
<path fill="#89f2a6" opacity="0.66" d="M4.102 0h32.6c2.020 0 3.657 1.637 3.657 3.657v24.686c0 2.020-1.637 3.657-3.657 3.657h-32.6c-2.020 0-3.657-1.637-3.657-3.657v-24.686c0-2.020 1.637-3.657 3.657-3.657z"></path>
<path fill="#00c938" d="M30.38 20.162v2.963c0 0.212-0.101 0.417-0.28 0.571-0.181 0.155-0.428 0.25-0.692 0.265-0.457 0.025-0.83 0.038-1.118 0.038-9.238 0-16.726-6.003-16.726-13.41 0-0.231 0.016-0.53 0.048-0.896 0.027-0.23 0.149-0.428 0.327-0.553l0.002-0.002c0.194-0.141 0.436-0.225 0.699-0.225 0.005 0 0.010 0 0.015 0h3.696c0.13 0 0.256 0.038 0.351 0.108 0.090 0.061 0.152 0.156 0.17 0.267l0 0.002c0.024 0.193 0.046 0.347 0.067 0.463 0.235 1.263 0.675 2.389 1.288 3.398l-0.025-0.044c0.1 0.167 0.035 0.368-0.154 0.475l-2.256 1.292c1.379 2.577 3.941 4.631 7.154 5.736l1.609-1.805c0.070-0.075 0.164-0.129 0.268-0.149l0.003-0.001c0.036-0.008 0.078-0.012 0.121-0.012 0.074 0 0.145 0.014 0.211 0.039l-0.004-0.001c1.395 0.545 3.011 0.923 4.695 1.059l0.061 0.004c0.129 0.009 0.245 0.059 0.336 0.138l-0.001-0.001c0.081 0.068 0.132 0.168 0.134 0.28v0h-0.002z"></path>
</svg>
<svg id="icon-exit"  viewBox="0 0 32 32">
<path d="M24 20v-4h-10v-4h10v-4l6 6zM22 18v8h-10v6l-12-6v-26h22v10h-2v-8h-16l8 4v18h8v-6z"></path>
</svg>
</svg>
